<?xml version="1.0" encoding="utf-8"?>
<!-- Generator: Adobe Illustrator 23.0.1, SVG Export Plug-In . SVG Version: 6.00 Build 0)  -->
<svg version="1.1" id="Laag_1" xmlns="http://www.w3.org/2000/svg" xmlns:xlink="http://www.w3.org/1999/xlink" x="0px" y="0px"
	 viewBox="0 0 337.79 160.64" style="enable-background:new 0 0 337.79 160.64;" xml:space="preserve">
<style type="text/css">
	.st0{fill:#F58025;}
</style>
<path class="st0" d="M0,1.84v158.81h37.28V0.05C37.28,0.05,22.06-0.46,0,1.84z"/>
<path class="st0" d="M75.57,10.77v139.4c0,0,39.57-16.82,39.57-72.75C115.15,24.81,75.57,10.77,75.57,10.77z"/>
<path class="st0" d="M152.94,0v160.64h37.53V2.09C190.47,2.09,166.98,0.72,152.94,0z"/>
<path class="st0" d="M300.26,0v160.64h37.53V2.09C337.79,2.09,314.3,0.72,300.26,0z"/>
<path class="st0" d="M228.26,3.88v97.53c0,0,36.77-8.68,36.77-48.77S228.26,3.88,228.26,3.88z"/>
</svg>
